<svg width="36" height="36" viewBox="0 0 36 36" fill="none" xmlns="http://www.w3.org/2000/svg">
<path d="M31.2601 6.91501C30.4939 6.14851 29.5843 5.54048 28.5831 5.12563C27.5819 4.71079 26.5088 4.49727 25.4251 4.49727C24.3413 4.49727 23.2682 4.71079 22.267 5.12563C21.2658 5.54048 20.3562 6.14851 19.5901 6.91501L18.0001 8.50501L16.4101 6.91501C14.8625 5.36747 12.7636 4.49807 10.5751 4.49807C8.38651 4.49807 6.28759 5.36747 4.74006 6.91501C3.19252 8.46255 2.32312 10.5615 2.32312 12.75C2.32312 14.9386 3.19252 17.0375 4.74006 18.585L18.0001 31.845L31.2601 18.585C32.0265 17.8189 32.6346 16.9092 33.0494 15.908C33.4643 14.9069 33.6778 13.8337 33.6778 12.75C33.6778 11.6663 33.4643 10.5932 33.0494 9.59197C32.6346 8.59079 32.0265 7.68114 31.2601 6.91501Z" stroke="#0A585C" stroke-width="4" stroke-linecap="round" stroke-linejoin="round"/>
</svg>
