<svg width="23" height="20" viewBox="0 0 23 20" fill="none" xmlns="http://www.w3.org/2000/svg">
<path d="M1.5 1H3.25L4 4M4 4L6.5 14H19.5L22 4H4Z" stroke="#0A585C" stroke-width="2" stroke-linecap="round" stroke-linejoin="round"/>
<path d="M6.5 19C7.32843 19 8 18.3284 8 17.5C8 16.6716 7.32843 16 6.5 16C5.67157 16 5 16.6716 5 17.5C5 18.3284 5.67157 19 6.5 19Z" stroke="#0A585C" stroke-width="2" stroke-linecap="round" stroke-linejoin="round"/>
<path d="M19.5 19C20.3284 19 21 18.3284 21 17.5C21 16.6716 20.3284 16 19.5 16C18.6716 16 18 16.6716 18 17.5C18 18.3284 18.6716 19 19.5 19Z" stroke="#0A585C" stroke-width="2" stroke-linecap="round" stroke-linejoin="round"/>
</svg>
