<svg width="24" height="29" viewBox="0 0 24 29" fill="none" xmlns="http://www.w3.org/2000/svg">
<path d="M7.64952 23.4049L7.77139 22.3208L6.46619 22.1742L6.56149 23.4842L7.64952 23.4049ZM16.3503 23.4049L17.4384 23.4842L17.5337 22.1742L16.2284 22.3208L16.3503 23.4049ZM16.2183 24.2396L17.2777 24.5L16.2183 24.2396ZM16.0991 24.7244L15.0397 24.4639L16.0991 24.7244ZM13.0237 27.7883L13.2775 28.8492L13.0237 27.7883ZM10.9762 27.7883L10.7223 28.8492L10.9762 27.7883ZM7.90075 24.7244L8.96011 24.4639L7.90075 24.7244ZM7.78152 24.2396L6.72217 24.5L7.78152 24.2396ZM7.52764 24.489C10.4998 24.8232 13.4999 24.8232 16.4722 24.489L16.2284 22.3208C13.4182 22.6367 10.5815 22.6367 7.77139 22.3208L7.52764 24.489ZM17.2777 24.5C17.3597 24.1663 17.4134 23.8264 17.4384 23.4842L15.2623 23.3258C15.2463 23.546 15.2117 23.7644 15.159 23.9791L17.2777 24.5ZM17.1584 24.985L17.2777 24.5L15.159 23.9791L15.0397 24.4639L17.1584 24.985ZM13.2775 28.8492C15.1919 28.3914 16.6879 26.8986 17.1584 24.985L15.0397 24.4639C14.7632 25.5886 13.8857 26.4604 12.7699 26.7274L13.2775 28.8492ZM10.7223 28.8492C11.5623 29.0503 12.4375 29.0503 13.2775 28.8492L12.7699 26.7274C12.2636 26.8485 11.7362 26.8485 11.2298 26.7274L10.7223 28.8492ZM6.8414 24.985C7.31193 26.8986 8.80792 28.3914 10.7223 28.8492L11.2298 26.7274C10.1141 26.4604 9.23667 25.5886 8.96011 24.4639L6.8414 24.985ZM6.72217 24.5L6.8414 24.985L8.96011 24.4639L8.84088 23.9791L6.72217 24.5ZM6.56149 23.4842C6.58639 23.8264 6.64011 24.1663 6.72217 24.5L8.84088 23.9791C8.78811 23.7644 8.75358 23.546 8.73756 23.3258L6.56149 23.4842Z" fill="#FC2F2F"/>
<path d="M13.0909 1.7272C13.0909 1.12471 12.6025 0.636292 12 0.636292C11.3975 0.636292 10.9091 1.12471 10.9091 1.7272H13.0909ZM10.9091 3.18864C10.9091 3.79113 11.3975 4.27955 12 4.27955C12.6025 4.27955 13.0909 3.79113 13.0909 3.18864H10.9091ZM10.9091 1.7272V3.18864H13.0909V1.7272H10.9091Z" fill="#FC2F2F"/>
<path d="M3.31316 9.92012L4.36611 10.2054L3.31316 9.92012ZM9.32131 3.6214L8.98489 2.58365L9.32131 3.6214ZM3.24796 10.1608L2.19501 9.87548L3.24796 10.1608ZM2.96663 16.0799L4.04189 15.8958L2.96663 16.0799ZM2.99937 16.2711L1.9241 16.4552L2.99937 16.2711ZM3.69104 22.7559L3.90881 21.6869L3.69104 22.7559ZM4.22572 22.8648L4.00796 23.9338L4.22572 22.8648ZM19.7743 22.8648L19.992 23.9338L19.7743 22.8648ZM20.3089 22.7559L20.0912 21.6869L20.3089 22.7559ZM21.0068 16.2344L22.0822 16.4186L21.0068 16.2344ZM21.0416 16.0317L19.9664 15.8475L21.0416 16.0317ZM20.7879 10.2018L19.7328 10.4786L20.7879 10.2018ZM20.6972 9.85577L21.7523 9.57893L20.6972 9.85577ZM14.8612 3.63034L15.2033 2.59448L14.8612 3.63034ZM21.2407 16.7102L20.7081 17.6622L21.2407 16.7102ZM2.78977 16.6933L3.3122 17.651L2.78977 16.6933ZM4.36611 10.2054C5.07527 7.58808 7.08439 5.4933 9.6576 4.65916L8.98489 2.58365C5.71565 3.64339 3.16362 6.30058 2.26022 9.63482L4.36611 10.2054ZM4.3009 10.4461L4.36611 10.2054L2.26022 9.63482L2.19501 9.87548L4.3009 10.4461ZM4.04189 15.8958C3.73135 14.082 3.81975 12.2218 4.3009 10.4461L2.19501 9.87548C1.63095 11.9573 1.52733 14.1378 1.89137 16.2639L4.04189 15.8958ZM4.07463 16.0869L4.04189 15.8958L1.89137 16.2639L1.9241 16.4552L4.07463 16.0869ZM2.18182 19.5605C2.18182 18.7355 2.63833 18.0187 3.3122 17.651L2.26735 15.7357C0.91744 16.4721 0 17.9092 0 19.5605H2.18182ZM3.90881 21.6869C2.90753 21.483 2.18182 20.5963 2.18182 19.5605H0C0 21.6266 1.44896 23.4125 3.47327 23.8248L3.90881 21.6869ZM4.44349 21.7959L3.90881 21.6869L3.47327 23.8248L4.00796 23.9338L4.44349 21.7959ZM19.5565 21.7959C14.5696 22.8117 9.4304 22.8117 4.44349 21.7959L4.00796 23.9338C9.28233 25.0082 14.7177 25.0082 19.992 23.9338L19.5565 21.7959ZM20.0912 21.6869L19.5565 21.7959L19.992 23.9338L20.5267 23.8248L20.0912 21.6869ZM21.8182 19.5605C21.8182 20.5963 21.0925 21.483 20.0912 21.6869L20.5267 23.8248C22.551 23.4125 24 21.6266 24 19.5605H21.8182ZM20.7081 17.6622C21.3709 18.0331 21.8182 18.7438 21.8182 19.5605H24C24 17.9258 23.1009 16.501 21.7734 15.7582L20.7081 17.6622ZM19.9664 15.8475L19.9316 16.0503L22.0822 16.4186L22.1169 16.2158L19.9664 15.8475ZM19.7328 10.4786C20.1924 12.2308 20.2721 14.0618 19.9664 15.8475L22.1169 16.2158C22.4752 14.1233 22.3818 11.978 21.8432 9.92495L19.7328 10.4786ZM19.642 10.1326L19.7328 10.4786L21.8432 9.92495L21.7523 9.57893L19.642 10.1326ZM14.5191 4.66623C17.0359 5.49744 18.9654 7.55379 19.642 10.1326L21.7523 9.57893C20.8892 6.28863 18.4253 3.65859 15.2033 2.59448L14.5191 4.66623ZM9.6576 4.65916C11.2349 4.14789 12.9495 4.14787 14.5191 4.66623L15.2033 2.59448C13.1885 1.92904 10.9984 1.93096 8.98489 2.58365L9.6576 4.65916ZM21.7734 15.7582C21.982 15.8749 22.1324 16.1255 22.0822 16.4186L19.9316 16.0503C19.816 16.7256 20.1623 17.3567 20.7081 17.6622L21.7734 15.7582ZM1.9241 16.4552C1.87024 16.1406 2.03217 15.8639 2.26735 15.7357L3.3122 17.651C3.84973 17.3578 4.18684 16.7423 4.07463 16.0869L1.9241 16.4552Z" fill="white"/>
<path d="M24 5.63629C24 7.84543 22.2091 9.63629 20 9.63629C17.7909 9.63629 16 7.84543 16 5.63629C16 3.42715 17.7909 1.63629 20 1.63629C22.2091 1.63629 24 3.42715 24 5.63629Z" fill="#FC2F2F"/>
<path d="M7.64952 23.4049L7.77139 22.3208L6.46619 22.1742L6.56149 23.4842L7.64952 23.4049ZM16.3503 23.4049L17.4384 23.4842L17.5337 22.1742L16.2284 22.3208L16.3503 23.4049ZM16.2183 24.2396L17.2777 24.5L16.2183 24.2396ZM16.0991 24.7244L15.0397 24.4639L16.0991 24.7244ZM13.0237 27.7883L13.2775 28.8492L13.0237 27.7883ZM10.9762 27.7883L10.7223 28.8492L10.9762 27.7883ZM7.90075 24.7244L8.96011 24.4639L7.90075 24.7244ZM7.78152 24.2396L6.72217 24.5L7.78152 24.2396ZM7.52764 24.489C10.4998 24.8232 13.4999 24.8232 16.4722 24.489L16.2284 22.3208C13.4182 22.6367 10.5815 22.6367 7.77139 22.3208L7.52764 24.489ZM17.2777 24.5C17.3597 24.1663 17.4134 23.8264 17.4384 23.4842L15.2623 23.3258C15.2463 23.546 15.2117 23.7644 15.159 23.9791L17.2777 24.5ZM17.1584 24.985L17.2777 24.5L15.159 23.9791L15.0397 24.4639L17.1584 24.985ZM13.2775 28.8492C15.1919 28.3914 16.6879 26.8986 17.1584 24.985L15.0397 24.4639C14.7632 25.5886 13.8857 26.4604 12.7699 26.7274L13.2775 28.8492ZM10.7223 28.8492C11.5623 29.0503 12.4375 29.0503 13.2775 28.8492L12.7699 26.7274C12.2636 26.8485 11.7362 26.8485 11.2298 26.7274L10.7223 28.8492ZM6.8414 24.985C7.31193 26.8986 8.80792 28.3914 10.7223 28.8492L11.2298 26.7274C10.1141 26.4604 9.23667 25.5886 8.96011 24.4639L6.8414 24.985ZM6.72217 24.5L6.8414 24.985L8.96011 24.4639L8.84088 23.9791L6.72217 24.5ZM6.56149 23.4842C6.58639 23.8264 6.64011 24.1663 6.72217 24.5L8.84088 23.9791C8.78811 23.7644 8.75358 23.546 8.73756 23.3258L6.56149 23.4842Z" fill="#FC2F2F"/>
<path d="M13.0909 1.7272C13.0909 1.12471 12.6025 0.636292 12 0.636292C11.3975 0.636292 10.9091 1.12471 10.9091 1.7272H13.0909ZM10.9091 3.18864C10.9091 3.79113 11.3975 4.27955 12 4.27955C12.6025 4.27955 13.0909 3.79113 13.0909 3.18864H10.9091ZM10.9091 1.7272V3.18864H13.0909V1.7272H10.9091Z" fill="#FC2F2F"/>
<path d="M3.31316 9.92012L4.36611 10.2054L3.31316 9.92012ZM9.32131 3.6214L8.98489 2.58365L9.32131 3.6214ZM3.24796 10.1608L2.19501 9.87548L3.24796 10.1608ZM2.96663 16.0799L4.04189 15.8958L2.96663 16.0799ZM2.99937 16.2711L1.9241 16.4552L2.99937 16.2711ZM3.69104 22.7559L3.90881 21.6869L3.69104 22.7559ZM4.22572 22.8648L4.00796 23.9338L4.22572 22.8648ZM19.7743 22.8648L19.992 23.9338L19.7743 22.8648ZM20.3089 22.7559L20.0912 21.6869L20.3089 22.7559ZM21.0068 16.2344L22.0822 16.4186L21.0068 16.2344ZM21.0416 16.0317L19.9664 15.8475L21.0416 16.0317ZM20.7879 10.2018L19.7328 10.4786L20.7879 10.2018ZM20.6972 9.85577L21.7523 9.57893L20.6972 9.85577ZM14.8612 3.63034L15.2033 2.59448L14.8612 3.63034ZM21.2407 16.7102L20.7081 17.6622L21.2407 16.7102ZM2.78977 16.6933L3.3122 17.651L2.78977 16.6933ZM4.36611 10.2054C5.07527 7.58808 7.08439 5.4933 9.6576 4.65916L8.98489 2.58365C5.71565 3.64339 3.16362 6.30058 2.26022 9.63482L4.36611 10.2054ZM4.3009 10.4461L4.36611 10.2054L2.26022 9.63482L2.19501 9.87548L4.3009 10.4461ZM4.04189 15.8958C3.73135 14.082 3.81975 12.2218 4.3009 10.4461L2.19501 9.87548C1.63095 11.9573 1.52733 14.1378 1.89137 16.2639L4.04189 15.8958ZM4.07463 16.0869L4.04189 15.8958L1.89137 16.2639L1.9241 16.4552L4.07463 16.0869ZM2.18182 19.5605C2.18182 18.7355 2.63833 18.0187 3.3122 17.651L2.26735 15.7357C0.91744 16.4721 0 17.9092 0 19.5605H2.18182ZM3.90881 21.6869C2.90753 21.483 2.18182 20.5963 2.18182 19.5605H0C0 21.6266 1.44896 23.4125 3.47327 23.8248L3.90881 21.6869ZM4.44349 21.7959L3.90881 21.6869L3.47327 23.8248L4.00796 23.9338L4.44349 21.7959ZM19.5565 21.7959C14.5696 22.8117 9.4304 22.8117 4.44349 21.7959L4.00796 23.9338C9.28233 25.0082 14.7177 25.0082 19.992 23.9338L19.5565 21.7959ZM20.0912 21.6869L19.5565 21.7959L19.992 23.9338L20.5267 23.8248L20.0912 21.6869ZM21.8182 19.5605C21.8182 20.5963 21.0925 21.483 20.0912 21.6869L20.5267 23.8248C22.551 23.4125 24 21.6266 24 19.5605H21.8182ZM20.7081 17.6622C21.3709 18.0331 21.8182 18.7438 21.8182 19.5605H24C24 17.9258 23.1009 16.501 21.7734 15.7582L20.7081 17.6622ZM19.9664 15.8475L19.9316 16.0503L22.0822 16.4186L22.1169 16.2158L19.9664 15.8475ZM19.7328 10.4786C20.1924 12.2308 20.2721 14.0618 19.9664 15.8475L22.1169 16.2158C22.4752 14.1233 22.3818 11.978 21.8432 9.92495L19.7328 10.4786ZM19.642 10.1326L19.7328 10.4786L21.8432 9.92495L21.7523 9.57893L19.642 10.1326ZM14.5191 4.66623C17.0359 5.49744 18.9654 7.55379 19.642 10.1326L21.7523 9.57893C20.8892 6.28863 18.4253 3.65859 15.2033 2.59448L14.5191 4.66623ZM9.6576 4.65916C11.2349 4.14789 12.9495 4.14787 14.5191 4.66623L15.2033 2.59448C13.1885 1.92904 10.9984 1.93096 8.98489 2.58365L9.6576 4.65916ZM21.7734 15.7582C21.982 15.8749 22.1324 16.1255 22.0822 16.4186L19.9316 16.0503C19.816 16.7256 20.1623 17.3567 20.7081 17.6622L21.7734 15.7582ZM1.9241 16.4552C1.87024 16.1406 2.03217 15.8639 2.26735 15.7357L3.3122 17.651C3.84973 17.3578 4.18684 16.7423 4.07463 16.0869L1.9241 16.4552Z" fill="white"/>
<path d="M7.64952 23.4049L7.77139 22.3208L6.46619 22.1742L6.56149 23.4842L7.64952 23.4049ZM16.3503 23.4049L17.4384 23.4842L17.5337 22.1742L16.2284 22.3208L16.3503 23.4049ZM16.2183 24.2396L17.2777 24.5L16.2183 24.2396ZM16.0991 24.7244L15.0397 24.4639L16.0991 24.7244ZM13.0237 27.7883L13.2775 28.8492L13.0237 27.7883ZM10.9762 27.7883L10.7223 28.8492L10.9762 27.7883ZM7.90075 24.7244L8.96011 24.4639L7.90075 24.7244ZM7.78152 24.2396L6.72217 24.5L7.78152 24.2396ZM7.52764 24.489C10.4998 24.8232 13.4999 24.8232 16.4722 24.489L16.2284 22.3208C13.4182 22.6367 10.5815 22.6367 7.77139 22.3208L7.52764 24.489ZM17.2777 24.5C17.3597 24.1663 17.4134 23.8264 17.4384 23.4842L15.2623 23.3258C15.2463 23.546 15.2117 23.7644 15.159 23.9791L17.2777 24.5ZM17.1584 24.985L17.2777 24.5L15.159 23.9791L15.0397 24.4639L17.1584 24.985ZM13.2775 28.8492C15.1919 28.3914 16.6879 26.8986 17.1584 24.985L15.0397 24.4639C14.7632 25.5886 13.8857 26.4604 12.7699 26.7274L13.2775 28.8492ZM10.7223 28.8492C11.5623 29.0503 12.4375 29.0503 13.2775 28.8492L12.7699 26.7274C12.2636 26.8485 11.7362 26.8485 11.2298 26.7274L10.7223 28.8492ZM6.8414 24.985C7.31193 26.8986 8.80792 28.3914 10.7223 28.8492L11.2298 26.7274C10.1141 26.4604 9.23667 25.5886 8.96011 24.4639L6.8414 24.985ZM6.72217 24.5L6.8414 24.985L8.96011 24.4639L8.84088 23.9791L6.72217 24.5ZM6.56149 23.4842C6.58639 23.8264 6.64011 24.1663 6.72217 24.5L8.84088 23.9791C8.78811 23.7644 8.75358 23.546 8.73756 23.3258L6.56149 23.4842Z" fill="#FC2F2F"/>
<path d="M13.0909 1.7272C13.0909 1.12471 12.6025 0.636292 12 0.636292C11.3975 0.636292 10.9091 1.12471 10.9091 1.7272H13.0909ZM10.9091 3.18864C10.9091 3.79113 11.3975 4.27955 12 4.27955C12.6025 4.27955 13.0909 3.79113 13.0909 3.18864H10.9091ZM10.9091 1.7272V3.18864H13.0909V1.7272H10.9091Z" fill="#FC2F2F"/>
<path d="M3.31316 9.92012L4.36611 10.2054L3.31316 9.92012ZM9.32131 3.6214L8.98489 2.58365L9.32131 3.6214ZM3.24796 10.1608L2.19501 9.87548L3.24796 10.1608ZM2.96663 16.0799L4.04189 15.8958L2.96663 16.0799ZM2.99937 16.2711L1.9241 16.4552L2.99937 16.2711ZM3.69104 22.7559L3.90881 21.6869L3.69104 22.7559ZM4.22572 22.8648L4.00796 23.9338L4.22572 22.8648ZM19.7743 22.8648L19.992 23.9338L19.7743 22.8648ZM20.3089 22.7559L20.0912 21.6869L20.3089 22.7559ZM21.0068 16.2344L22.0822 16.4186L21.0068 16.2344ZM21.0416 16.0317L19.9664 15.8475L21.0416 16.0317ZM20.7879 10.2018L19.7328 10.4786L20.7879 10.2018ZM20.6972 9.85577L21.7523 9.57893L20.6972 9.85577ZM14.8612 3.63034L15.2033 2.59448L14.8612 3.63034ZM21.2407 16.7102L20.7081 17.6622L21.2407 16.7102ZM2.78977 16.6933L3.3122 17.651L2.78977 16.6933ZM4.36611 10.2054C5.07527 7.58808 7.08439 5.4933 9.6576 4.65916L8.98489 2.58365C5.71565 3.64339 3.16362 6.30058 2.26022 9.63482L4.36611 10.2054ZM4.3009 10.4461L4.36611 10.2054L2.26022 9.63482L2.19501 9.87548L4.3009 10.4461ZM4.04189 15.8958C3.73135 14.082 3.81975 12.2218 4.3009 10.4461L2.19501 9.87548C1.63095 11.9573 1.52733 14.1378 1.89137 16.2639L4.04189 15.8958ZM4.07463 16.0869L4.04189 15.8958L1.89137 16.2639L1.9241 16.4552L4.07463 16.0869ZM2.18182 19.5605C2.18182 18.7355 2.63833 18.0187 3.3122 17.651L2.26735 15.7357C0.91744 16.4721 0 17.9092 0 19.5605H2.18182ZM3.90881 21.6869C2.90753 21.483 2.18182 20.5963 2.18182 19.5605H0C0 21.6266 1.44896 23.4125 3.47327 23.8248L3.90881 21.6869ZM4.44349 21.7959L3.90881 21.6869L3.47327 23.8248L4.00796 23.9338L4.44349 21.7959ZM19.5565 21.7959C14.5696 22.8117 9.4304 22.8117 4.44349 21.7959L4.00796 23.9338C9.28233 25.0082 14.7177 25.0082 19.992 23.9338L19.5565 21.7959ZM20.0912 21.6869L19.5565 21.7959L19.992 23.9338L20.5267 23.8248L20.0912 21.6869ZM21.8182 19.5605C21.8182 20.5963 21.0925 21.483 20.0912 21.6869L20.5267 23.8248C22.551 23.4125 24 21.6266 24 19.5605H21.8182ZM20.7081 17.6622C21.3709 18.0331 21.8182 18.7438 21.8182 19.5605H24C24 17.9258 23.1009 16.501 21.7734 15.7582L20.7081 17.6622ZM19.9664 15.8475L19.9316 16.0503L22.0822 16.4186L22.1169 16.2158L19.9664 15.8475ZM19.7328 10.4786C20.1924 12.2308 20.2721 14.0618 19.9664 15.8475L22.1169 16.2158C22.4752 14.1233 22.3818 11.978 21.8432 9.92495L19.7328 10.4786ZM19.642 10.1326L19.7328 10.4786L21.8432 9.92495L21.7523 9.57893L19.642 10.1326ZM14.5191 4.66623C17.0359 5.49744 18.9654 7.55379 19.642 10.1326L21.7523 9.57893C20.8892 6.28863 18.4253 3.65859 15.2033 2.59448L14.5191 4.66623ZM9.6576 4.65916C11.2349 4.14789 12.9495 4.14787 14.5191 4.66623L15.2033 2.59448C13.1885 1.92904 10.9984 1.93096 8.98489 2.58365L9.6576 4.65916ZM21.7734 15.7582C21.982 15.8749 22.1324 16.1255 22.0822 16.4186L19.9316 16.0503C19.816 16.7256 20.1623 17.3567 20.7081 17.6622L21.7734 15.7582ZM1.9241 16.4552C1.87024 16.1406 2.03217 15.8639 2.26735 15.7357L3.3122 17.651C3.84973 17.3578 4.18684 16.7423 4.07463 16.0869L1.9241 16.4552Z" fill="#0A585C"/>
<path d="M24 5.63629C24 7.84543 22.2091 9.63629 20 9.63629C17.7909 9.63629 16 7.84543 16 5.63629C16 3.42715 17.7909 1.63629 20 1.63629C22.2091 1.63629 24 3.42715 24 5.63629Z" fill="#FC2F2F"/>
<path d="M24 5.63629C24 7.84543 22.2091 9.63629 20 9.63629C17.7909 9.63629 16 7.84543 16 5.63629C16 3.42715 17.7909 1.63629 20 1.63629C22.2091 1.63629 24 3.42715 24 5.63629Z" fill="#FC2F2F"/>
</svg>
