<svg width="24" height="29" viewBox="0 0 24 29" fill="none" xmlns="http://www.w3.org/2000/svg">
<path d="M7.64952 22.7686L7.77139 21.6845L6.46619 21.5379L6.56149 22.8479L7.64952 22.7686ZM16.3503 22.7686L17.4384 22.8479L17.5337 21.5379L16.2284 21.6845L16.3503 22.7686ZM16.2183 23.6034L17.2777 23.8637L16.2183 23.6034ZM16.0991 24.0882L15.0397 23.8276L16.0991 24.0882ZM13.0237 27.152L13.2775 28.213L13.0237 27.152ZM10.9762 27.152L10.7223 28.213L10.9762 27.152ZM7.90075 24.0882L8.96011 23.8276L7.90075 24.0882ZM7.78152 23.6034L6.72217 23.8637L7.78152 23.6034ZM7.52764 23.8527C10.4998 24.1869 13.4999 24.1869 16.4722 23.8527L16.2284 21.6845C13.4182 22.0004 10.5815 22.0004 7.77139 21.6845L7.52764 23.8527ZM17.2777 23.8637C17.3597 23.53 17.4134 23.1901 17.4384 22.8479L15.2623 22.6895C15.2463 22.9097 15.2117 23.1282 15.159 23.3428L17.2777 23.8637ZM17.1584 24.3487L17.2777 23.8637L15.159 23.3428L15.0397 23.8276L17.1584 24.3487ZM13.2775 28.213C15.1919 27.7551 16.6879 26.2623 17.1584 24.3487L15.0397 23.8276C14.7632 24.9523 13.8857 25.8242 12.7699 26.0911L13.2775 28.213ZM10.7223 28.213C11.5623 28.414 12.4375 28.414 13.2775 28.213L12.7699 26.0911C12.2636 26.2122 11.7362 26.2122 11.2298 26.0911L10.7223 28.213ZM6.8414 24.3487C7.31193 26.2623 8.80792 27.7551 10.7223 28.213L11.2298 26.0911C10.1141 25.8242 9.23667 24.9523 8.96011 23.8276L6.8414 24.3487ZM6.72217 23.8637L6.8414 24.3487L8.96011 23.8276L8.84088 23.3428L6.72217 23.8637ZM6.56149 22.8479C6.58639 23.1901 6.64011 23.53 6.72217 23.8637L8.84088 23.3428C8.78811 23.1282 8.75358 22.9097 8.73756 22.6895L6.56149 22.8479Z" fill="#FC2F2F"/>
<path d="M13.0909 1.09091C13.0909 0.488422 12.6024 0 12 0C11.3975 0 10.9091 0.488422 10.9091 1.09091H13.0909ZM10.9091 2.55235C10.9091 3.15484 11.3975 3.64326 12 3.64326C12.6024 3.64326 13.0909 3.15484 13.0909 2.55235H10.9091ZM10.9091 1.09091V2.55235H13.0909V1.09091H10.9091Z" fill="#FC2F2F"/>
<path d="M3.31316 9.28383L4.36611 9.56912L3.31316 9.28383ZM9.32131 2.98511L8.98489 1.94736L9.32131 2.98511ZM3.24796 9.52448L2.19501 9.23919L3.24796 9.52448ZM2.96663 15.4437L4.04189 15.2595L2.96663 15.4437ZM2.99937 15.6348L1.9241 15.8189L2.99937 15.6348ZM3.69104 22.1196L3.90881 21.0506L3.69104 22.1196ZM4.22572 22.2285L4.00796 23.2975L4.22572 22.2285ZM19.7743 22.2285L19.992 23.2975L19.7743 22.2285ZM20.3089 22.1196L20.0912 21.0506L20.3089 22.1196ZM21.0068 15.5981L22.0822 15.7823L21.0068 15.5981ZM21.0416 15.3954L19.9664 15.2112L21.0416 15.3954ZM20.7879 9.5655L19.7328 9.84234L20.7879 9.5655ZM20.6972 9.21948L21.7523 8.94264L20.6972 9.21948ZM14.8612 2.99405L15.2033 1.95818L14.8612 2.99405ZM21.2407 16.0739L20.7081 17.0259L21.2407 16.0739ZM2.78977 16.057L3.3122 17.0147L2.78977 16.057ZM4.36611 9.56912C5.07527 6.95178 7.08439 4.85701 9.6576 4.02287L8.98489 1.94736C5.71565 3.0071 3.16362 5.66429 2.26022 8.99853L4.36611 9.56912ZM4.3009 9.80978L4.36611 9.56912L2.26022 8.99853L2.19501 9.23919L4.3009 9.80978ZM4.04189 15.2595C3.73135 13.4457 3.81975 11.5855 4.3009 9.80978L2.19501 9.23919C1.63095 11.321 1.52733 13.5015 1.89137 15.6277L4.04189 15.2595ZM4.07463 15.4506L4.04189 15.2595L1.89137 15.6277L1.9241 15.8189L4.07463 15.4506ZM2.18182 18.9242C2.18182 18.0992 2.63833 17.3824 3.3122 17.0147L2.26735 15.0994C0.91744 15.8358 0 17.2729 0 18.9242H2.18182ZM3.90881 21.0506C2.90753 20.8467 2.18182 19.96 2.18182 18.9242H0C0 20.9903 1.44896 22.7762 3.47327 23.1885L3.90881 21.0506ZM4.44349 21.1596L3.90881 21.0506L3.47327 23.1885L4.00796 23.2975L4.44349 21.1596ZM19.5565 21.1596C14.5696 22.1754 9.4304 22.1754 4.44349 21.1596L4.00796 23.2975C9.28233 24.3719 14.7177 24.3719 19.992 23.2975L19.5565 21.1596ZM20.0912 21.0506L19.5565 21.1596L19.992 23.2975L20.5267 23.1885L20.0912 21.0506ZM21.8182 18.9242C21.8182 19.96 21.0925 20.8467 20.0912 21.0506L20.5267 23.1885C22.551 22.7762 24 20.9903 24 18.9242H21.8182ZM20.7081 17.0259C21.3709 17.3968 21.8182 18.1075 21.8182 18.9242H24C24 17.2895 23.1009 15.8647 21.7734 15.1219L20.7081 17.0259ZM19.9664 15.2112L19.9316 15.414L22.0822 15.7823L22.1169 15.5795L19.9664 15.2112ZM19.7328 9.84234C20.1924 11.5945 20.2721 13.4255 19.9664 15.2112L22.1169 15.5795C22.4752 13.487 22.3818 11.3417 21.8432 9.28866L19.7328 9.84234ZM19.642 9.49632L19.7328 9.84234L21.8432 9.28866L21.7523 8.94264L19.642 9.49632ZM14.5191 4.02994C17.0359 4.86115 18.9654 6.9175 19.642 9.49632L21.7523 8.94264C20.8892 5.65234 18.4253 3.0223 15.2033 1.95818L14.5191 4.02994ZM9.6576 4.02287C11.2349 3.51159 12.9495 3.51158 14.5191 4.02994L15.2033 1.95818C13.1885 1.29274 10.9984 1.29466 8.98489 1.94736L9.6576 4.02287ZM21.7734 15.1219C21.982 15.2386 22.1324 15.4892 22.0822 15.7823L19.9316 15.414C19.816 16.0893 20.1623 16.7205 20.7081 17.0259L21.7734 15.1219ZM1.9241 15.8189C1.87024 15.5043 2.03217 15.2277 2.26735 15.0994L3.3122 17.0147C3.84973 16.7215 4.18684 16.1061 4.07463 15.4506L1.9241 15.8189Z" fill="white"/>
<path d="M7.64952 22.7686L7.77139 21.6845L6.46619 21.5379L6.56149 22.8479L7.64952 22.7686ZM16.3503 22.7686L17.4384 22.8479L17.5337 21.5379L16.2284 21.6845L16.3503 22.7686ZM16.2183 23.6034L17.2777 23.8637L16.2183 23.6034ZM16.0991 24.0882L15.0397 23.8276L16.0991 24.0882ZM13.0237 27.152L13.2775 28.213L13.0237 27.152ZM10.9762 27.152L10.7223 28.213L10.9762 27.152ZM7.90075 24.0882L8.96011 23.8276L7.90075 24.0882ZM7.78152 23.6034L6.72217 23.8637L7.78152 23.6034ZM7.52764 23.8527C10.4998 24.1869 13.4999 24.1869 16.4722 23.8527L16.2284 21.6845C13.4182 22.0004 10.5815 22.0004 7.77139 21.6845L7.52764 23.8527ZM17.2777 23.8637C17.3597 23.53 17.4134 23.1901 17.4384 22.8479L15.2623 22.6895C15.2463 22.9097 15.2117 23.1282 15.159 23.3428L17.2777 23.8637ZM17.1584 24.3487L17.2777 23.8637L15.159 23.3428L15.0397 23.8276L17.1584 24.3487ZM13.2775 28.213C15.1919 27.7551 16.6879 26.2623 17.1584 24.3487L15.0397 23.8276C14.7632 24.9523 13.8857 25.8242 12.7699 26.0911L13.2775 28.213ZM10.7223 28.213C11.5623 28.414 12.4375 28.414 13.2775 28.213L12.7699 26.0911C12.2636 26.2122 11.7362 26.2122 11.2298 26.0911L10.7223 28.213ZM6.8414 24.3487C7.31193 26.2623 8.80792 27.7551 10.7223 28.213L11.2298 26.0911C10.1141 25.8242 9.23667 24.9523 8.96011 23.8276L6.8414 24.3487ZM6.72217 23.8637L6.8414 24.3487L8.96011 23.8276L8.84088 23.3428L6.72217 23.8637ZM6.56149 22.8479C6.58639 23.1901 6.64011 23.53 6.72217 23.8637L8.84088 23.3428C8.78811 23.1282 8.75358 22.9097 8.73756 22.6895L6.56149 22.8479Z" fill="#FC2F2F"/>
<path d="M13.0909 1.09091C13.0909 0.488422 12.6024 0 12 0C11.3975 0 10.9091 0.488422 10.9091 1.09091H13.0909ZM10.9091 2.55235C10.9091 3.15484 11.3975 3.64326 12 3.64326C12.6024 3.64326 13.0909 3.15484 13.0909 2.55235H10.9091ZM10.9091 1.09091V2.55235H13.0909V1.09091H10.9091Z" fill="#FC2F2F"/>
<path d="M3.31316 9.28383L4.36611 9.56912L3.31316 9.28383ZM9.32131 2.98511L8.98489 1.94736L9.32131 2.98511ZM3.24796 9.52448L2.19501 9.23919L3.24796 9.52448ZM2.96663 15.4437L4.04189 15.2595L2.96663 15.4437ZM2.99937 15.6348L1.9241 15.8189L2.99937 15.6348ZM3.69104 22.1196L3.90881 21.0506L3.69104 22.1196ZM4.22572 22.2285L4.00796 23.2975L4.22572 22.2285ZM19.7743 22.2285L19.992 23.2975L19.7743 22.2285ZM20.3089 22.1196L20.0912 21.0506L20.3089 22.1196ZM21.0068 15.5981L22.0822 15.7823L21.0068 15.5981ZM21.0416 15.3954L19.9664 15.2112L21.0416 15.3954ZM20.7879 9.5655L19.7328 9.84234L20.7879 9.5655ZM20.6972 9.21948L21.7523 8.94264L20.6972 9.21948ZM14.8612 2.99405L15.2033 1.95818L14.8612 2.99405ZM21.2407 16.0739L20.7081 17.0259L21.2407 16.0739ZM2.78977 16.057L3.3122 17.0147L2.78977 16.057ZM4.36611 9.56912C5.07527 6.95178 7.08439 4.85701 9.6576 4.02287L8.98489 1.94736C5.71565 3.0071 3.16362 5.66429 2.26022 8.99853L4.36611 9.56912ZM4.3009 9.80978L4.36611 9.56912L2.26022 8.99853L2.19501 9.23919L4.3009 9.80978ZM4.04189 15.2595C3.73135 13.4457 3.81975 11.5855 4.3009 9.80978L2.19501 9.23919C1.63095 11.321 1.52733 13.5015 1.89137 15.6277L4.04189 15.2595ZM4.07463 15.4506L4.04189 15.2595L1.89137 15.6277L1.9241 15.8189L4.07463 15.4506ZM2.18182 18.9242C2.18182 18.0992 2.63833 17.3824 3.3122 17.0147L2.26735 15.0994C0.91744 15.8358 0 17.2729 0 18.9242H2.18182ZM3.90881 21.0506C2.90753 20.8467 2.18182 19.96 2.18182 18.9242H0C0 20.9903 1.44896 22.7762 3.47327 23.1885L3.90881 21.0506ZM4.44349 21.1596L3.90881 21.0506L3.47327 23.1885L4.00796 23.2975L4.44349 21.1596ZM19.5565 21.1596C14.5696 22.1754 9.4304 22.1754 4.44349 21.1596L4.00796 23.2975C9.28233 24.3719 14.7177 24.3719 19.992 23.2975L19.5565 21.1596ZM20.0912 21.0506L19.5565 21.1596L19.992 23.2975L20.5267 23.1885L20.0912 21.0506ZM21.8182 18.9242C21.8182 19.96 21.0925 20.8467 20.0912 21.0506L20.5267 23.1885C22.551 22.7762 24 20.9903 24 18.9242H21.8182ZM20.7081 17.0259C21.3709 17.3968 21.8182 18.1075 21.8182 18.9242H24C24 17.2895 23.1009 15.8647 21.7734 15.1219L20.7081 17.0259ZM19.9664 15.2112L19.9316 15.414L22.0822 15.7823L22.1169 15.5795L19.9664 15.2112ZM19.7328 9.84234C20.1924 11.5945 20.2721 13.4255 19.9664 15.2112L22.1169 15.5795C22.4752 13.487 22.3818 11.3417 21.8432 9.28866L19.7328 9.84234ZM19.642 9.49632L19.7328 9.84234L21.8432 9.28866L21.7523 8.94264L19.642 9.49632ZM14.5191 4.02994C17.0359 4.86115 18.9654 6.9175 19.642 9.49632L21.7523 8.94264C20.8892 5.65234 18.4253 3.0223 15.2033 1.95818L14.5191 4.02994ZM9.6576 4.02287C11.2349 3.51159 12.9495 3.51158 14.5191 4.02994L15.2033 1.95818C13.1885 1.29274 10.9984 1.29466 8.98489 1.94736L9.6576 4.02287ZM21.7734 15.1219C21.982 15.2386 22.1324 15.4892 22.0822 15.7823L19.9316 15.414C19.816 16.0893 20.1623 16.7205 20.7081 17.0259L21.7734 15.1219ZM1.9241 15.8189C1.87024 15.5043 2.03217 15.2277 2.26735 15.0994L3.3122 17.0147C3.84973 16.7215 4.18684 16.1061 4.07463 15.4506L1.9241 15.8189Z" fill="white"/>
<path d="M7.64952 22.7686L7.77139 21.6845L6.46619 21.5379L6.56149 22.8479L7.64952 22.7686ZM16.3503 22.7686L17.4384 22.8479L17.5337 21.5379L16.2284 21.6845L16.3503 22.7686ZM16.2183 23.6034L17.2777 23.8637L16.2183 23.6034ZM16.0991 24.0882L15.0397 23.8276L16.0991 24.0882ZM13.0237 27.152L13.2775 28.213L13.0237 27.152ZM10.9762 27.152L10.7223 28.213L10.9762 27.152ZM7.90075 24.0882L8.96011 23.8276L7.90075 24.0882ZM7.78152 23.6034L6.72217 23.8637L7.78152 23.6034ZM7.52764 23.8527C10.4998 24.1869 13.4999 24.1869 16.4722 23.8527L16.2284 21.6845C13.4182 22.0004 10.5815 22.0004 7.77139 21.6845L7.52764 23.8527ZM17.2777 23.8637C17.3597 23.53 17.4134 23.1901 17.4384 22.8479L15.2623 22.6895C15.2463 22.9097 15.2117 23.1282 15.159 23.3428L17.2777 23.8637ZM17.1584 24.3487L17.2777 23.8637L15.159 23.3428L15.0397 23.8276L17.1584 24.3487ZM13.2775 28.213C15.1919 27.7551 16.6879 26.2623 17.1584 24.3487L15.0397 23.8276C14.7632 24.9523 13.8857 25.8242 12.7699 26.0911L13.2775 28.213ZM10.7223 28.213C11.5623 28.414 12.4375 28.414 13.2775 28.213L12.7699 26.0911C12.2636 26.2122 11.7362 26.2122 11.2298 26.0911L10.7223 28.213ZM6.8414 24.3487C7.31193 26.2623 8.80792 27.7551 10.7223 28.213L11.2298 26.0911C10.1141 25.8242 9.23667 24.9523 8.96011 23.8276L6.8414 24.3487ZM6.72217 23.8637L6.8414 24.3487L8.96011 23.8276L8.84088 23.3428L6.72217 23.8637ZM6.56149 22.8479C6.58639 23.1901 6.64011 23.53 6.72217 23.8637L8.84088 23.3428C8.78811 23.1282 8.75358 22.9097 8.73756 22.6895L6.56149 22.8479Z" fill="#FC2F2F"/>
<path d="M13.0909 1.09091C13.0909 0.488422 12.6024 0 12 0C11.3975 0 10.9091 0.488422 10.9091 1.09091H13.0909ZM10.9091 2.55235C10.9091 3.15484 11.3975 3.64326 12 3.64326C12.6024 3.64326 13.0909 3.15484 13.0909 2.55235H10.9091ZM10.9091 1.09091V2.55235H13.0909V1.09091H10.9091Z" fill="#FC2F2F"/>
<path d="M3.31316 9.28383L4.36611 9.56912L3.31316 9.28383ZM9.32131 2.98511L8.98489 1.94736L9.32131 2.98511ZM3.24796 9.52448L2.19501 9.23919L3.24796 9.52448ZM2.96663 15.4437L4.04189 15.2595L2.96663 15.4437ZM2.99937 15.6348L1.9241 15.8189L2.99937 15.6348ZM3.69104 22.1196L3.90881 21.0506L3.69104 22.1196ZM4.22572 22.2285L4.00796 23.2975L4.22572 22.2285ZM19.7743 22.2285L19.992 23.2975L19.7743 22.2285ZM20.3089 22.1196L20.0912 21.0506L20.3089 22.1196ZM21.0068 15.5981L22.0822 15.7823L21.0068 15.5981ZM21.0416 15.3954L19.9664 15.2112L21.0416 15.3954ZM20.7879 9.5655L19.7328 9.84234L20.7879 9.5655ZM20.6972 9.21948L21.7523 8.94264L20.6972 9.21948ZM14.8612 2.99405L15.2033 1.95818L14.8612 2.99405ZM21.2407 16.0739L20.7081 17.0259L21.2407 16.0739ZM2.78977 16.057L3.3122 17.0147L2.78977 16.057ZM4.36611 9.56912C5.07527 6.95178 7.08439 4.85701 9.6576 4.02287L8.98489 1.94736C5.71565 3.0071 3.16362 5.66429 2.26022 8.99853L4.36611 9.56912ZM4.3009 9.80978L4.36611 9.56912L2.26022 8.99853L2.19501 9.23919L4.3009 9.80978ZM4.04189 15.2595C3.73135 13.4457 3.81975 11.5855 4.3009 9.80978L2.19501 9.23919C1.63095 11.321 1.52733 13.5015 1.89137 15.6277L4.04189 15.2595ZM4.07463 15.4506L4.04189 15.2595L1.89137 15.6277L1.9241 15.8189L4.07463 15.4506ZM2.18182 18.9242C2.18182 18.0992 2.63833 17.3824 3.3122 17.0147L2.26735 15.0994C0.91744 15.8358 0 17.2729 0 18.9242H2.18182ZM3.90881 21.0506C2.90753 20.8467 2.18182 19.96 2.18182 18.9242H0C0 20.9903 1.44896 22.7762 3.47327 23.1885L3.90881 21.0506ZM4.44349 21.1596L3.90881 21.0506L3.47327 23.1885L4.00796 23.2975L4.44349 21.1596ZM19.5565 21.1596C14.5696 22.1754 9.4304 22.1754 4.44349 21.1596L4.00796 23.2975C9.28233 24.3719 14.7177 24.3719 19.992 23.2975L19.5565 21.1596ZM20.0912 21.0506L19.5565 21.1596L19.992 23.2975L20.5267 23.1885L20.0912 21.0506ZM21.8182 18.9242C21.8182 19.96 21.0925 20.8467 20.0912 21.0506L20.5267 23.1885C22.551 22.7762 24 20.9903 24 18.9242H21.8182ZM20.7081 17.0259C21.3709 17.3968 21.8182 18.1075 21.8182 18.9242H24C24 17.2895 23.1009 15.8647 21.7734 15.1219L20.7081 17.0259ZM19.9664 15.2112L19.9316 15.414L22.0822 15.7823L22.1169 15.5795L19.9664 15.2112ZM19.7328 9.84234C20.1924 11.5945 20.2721 13.4255 19.9664 15.2112L22.1169 15.5795C22.4752 13.487 22.3818 11.3417 21.8432 9.28866L19.7328 9.84234ZM19.642 9.49632L19.7328 9.84234L21.8432 9.28866L21.7523 8.94264L19.642 9.49632ZM14.5191 4.02994C17.0359 4.86115 18.9654 6.9175 19.642 9.49632L21.7523 8.94264C20.8892 5.65234 18.4253 3.0223 15.2033 1.95818L14.5191 4.02994ZM9.6576 4.02287C11.2349 3.51159 12.9495 3.51158 14.5191 4.02994L15.2033 1.95818C13.1885 1.29274 10.9984 1.29466 8.98489 1.94736L9.6576 4.02287ZM21.7734 15.1219C21.982 15.2386 22.1324 15.4892 22.0822 15.7823L19.9316 15.414C19.816 16.0893 20.1623 16.7205 20.7081 17.0259L21.7734 15.1219ZM1.9241 15.8189C1.87024 15.5043 2.03217 15.2277 2.26735 15.0994L3.3122 17.0147C3.84973 16.7215 4.18684 16.1061 4.07463 15.4506L1.9241 15.8189Z" fill="white"/>
<path d="M24 5C24 7.20914 22.2091 9 20 9C17.7909 9 16 7.20914 16 5C16 2.79086 17.7909 1 20 1C22.2091 1 24 2.79086 24 5Z" fill="#FC2F2F"/>
<path d="M24 5C24 7.20914 22.2091 9 20 9C17.7909 9 16 7.20914 16 5C16 2.79086 17.7909 1 20 1C22.2091 1 24 2.79086 24 5Z" fill="#FC2F2F"/>
<path d="M24 5C24 7.20914 22.2091 9 20 9C17.7909 9 16 7.20914 16 5C16 2.79086 17.7909 1 20 1C22.2091 1 24 2.79086 24 5Z" fill="#FC2F2F"/>
</svg>
